<svg width="29" height="40" viewBox="0 0 29 40" fill="none" xmlns="http://www.w3.org/2000/svg">
<g clip-path="url(#clip0_6686_1154)">
<path d="M12.1362 25.2218L16.4912 39.8472L20.0702 34.712L25.9814 36.8874L21.3168 22.7285L12.1362 25.2218Z" fill="#CD3414"/>
<g opacity="0.7">
<path d="M14.5876 29.2977L14.1296 29.4375L17.0417 38.9804L17.4997 38.8406L14.5876 29.2977Z" fill="#FFCE45"/>
</g>
<g opacity="0.7">
<path d="M21.2294 24.9894L20.7727 25.1333L24.3519 36.4919L24.8086 36.348L21.2294 24.9894Z" fill="#FFCE45"/>
</g>
<path d="M6.84417 23.6655L2.17957 37.2011L8.55727 35.0216L11.8225 39.9999L17.2714 25.5314L6.84417 23.6655Z" fill="#FE5629"/>
<g opacity="0.7">
<path d="M8.01721 23.1215L3.6593 36.502L4.11461 36.6502L8.47251 23.2698L8.01721 23.1215Z" fill="#FFCE45"/>
</g>
<g opacity="0.7">
<path d="M15.8006 24.6737L10.8201 38.8325L11.2718 38.9914L16.2523 24.8326L15.8006 24.6737Z" fill="#FFCE45"/>
</g>
<path d="M0 14.1753C0 13.519 1.5934 12.9865 1.68421 12.3549C1.77503 11.7233 0.412797 10.7533 0.577915 10.1382C0.743034 9.52313 2.43963 9.45708 2.70382 8.87504C2.96801 8.293 1.92363 6.97205 2.29102 6.43541C2.65841 5.89878 4.27245 6.30332 4.6935 5.82034C5.11455 5.33737 4.47472 3.777 4.96182 3.34356C5.44892 2.91013 6.8937 3.75636 7.4386 3.42612C7.98349 3.09589 7.79773 1.40755 8.38803 1.13923C8.97833 0.870912 10.097 2.11343 10.7327 1.92767C11.3684 1.74191 11.6326 0.0948544 12.2766 -8.88319e-05C12.9205 -0.0950321 13.6594 1.41168 14.3117 1.41168C14.9639 1.41168 15.7193 -0.0867761 16.3509 -8.88319e-05C16.9825 0.0865985 17.2962 1.74604 17.9112 1.92354C18.5263 2.10105 19.678 0.879168 20.2601 1.14749C20.8421 1.4158 20.6729 3.08763 21.2095 3.43438C21.7461 3.78113 23.2033 2.93077 23.6863 3.35182C24.1692 3.77287 23.5335 5.32912 23.9546 5.8286C24.3756 6.32808 26.0186 5.89878 26.3571 6.44367C26.6956 6.98856 25.6512 8.293 25.9236 8.8833C26.1961 9.4736 27.8679 9.52726 28.0495 10.1465C28.2312 10.7656 26.8524 11.7192 26.9432 12.3632C27.0341 13.0071 28.6274 13.5273 28.6274 14.1836C28.6274 14.84 27.0341 15.3683 26.9432 15.9999C26.8524 16.6315 28.2312 17.6016 28.0495 18.2166C27.8679 18.8317 26.1878 18.9019 25.9236 19.4839C25.6594 20.066 26.7038 21.3828 26.3571 21.9235C26.0103 22.4643 24.3756 22.0515 23.9546 22.5345C23.5335 23.0175 24.1734 24.5985 23.6863 25.0113C23.1992 25.4241 21.7544 24.5985 21.2095 24.9287C20.6646 25.2589 20.8504 26.9473 20.2601 27.2156C19.6698 27.4839 18.5304 26.2373 17.9112 26.4189C17.2921 26.6005 16.9948 28.2517 16.3509 28.3425C15.7069 28.4333 14.968 26.9308 14.3117 26.9308C13.6553 26.9308 12.9082 28.4333 12.2766 28.3425C11.645 28.2517 11.3313 26.5964 10.7327 26.4189C10.1342 26.2414 8.96594 27.4633 8.3839 27.195C7.80186 26.9266 7.9711 25.2548 7.43447 24.9081C6.89783 24.5613 5.44066 25.4117 4.95769 24.9906C4.47472 24.5696 5.11042 23.0133 4.68937 22.5138C4.26832 22.0144 2.62539 22.4437 2.28689 21.9029C1.9484 21.3621 2.99278 20.0494 2.69969 19.4633C2.4066 18.8771 0.759546 18.8317 0.577915 18.2084C0.396285 17.585 1.77503 16.6356 1.68421 15.9917C1.5934 15.3477 0 14.8276 0 14.1753Z" fill="#939393"/>
<path d="M14.3116 25.6884C20.67 25.6884 25.8245 20.5339 25.8245 14.1755C25.8245 7.8171 20.67 2.6626 14.3116 2.6626C7.95321 2.6626 2.79871 7.8171 2.79871 14.1755C2.79871 20.5339 7.95321 25.6884 14.3116 25.6884Z" fill="#BCBCBC"/>
<path d="M14.3116 22.4231C18.8667 22.4231 22.5593 18.7305 22.5593 14.1754C22.5593 9.62035 18.8667 5.92773 14.3116 5.92773C9.75658 5.92773 6.06396 9.62035 6.06396 14.1754C6.06396 18.7305 9.75658 22.4231 14.3116 22.4231Z" fill="#C4C4C4"/>
<path d="M21.16 10.9062C21.1581 10.391 21.1097 9.87704 21.0155 9.37055C19.916 7.85473 18.334 6.75769 16.5289 6.25948C14.7238 5.76128 12.803 5.8915 11.0817 6.62879C9.36042 7.36608 7.94089 8.66663 7.05612 10.317C6.17135 11.9673 5.8739 13.8694 6.21259 15.7111C7.23331 17.1235 8.67478 18.1768 10.3306 18.72C11.9864 19.2632 13.7717 19.2685 15.4307 18.7352C17.0897 18.2019 18.5375 17.1573 19.5666 15.751C20.5957 14.3447 21.1535 12.6488 21.16 10.9062Z" fill="#DBDBDB"/>
<path d="M14.3117 22.6583C12.6329 22.6583 10.9919 22.1604 9.59608 21.2277C8.20029 20.2949 7.11248 18.9692 6.47024 17.4181C5.82799 15.867 5.66016 14.1604 5.98797 12.5139C6.31578 10.8675 7.12451 9.35522 8.31186 8.16844C9.49922 6.98166 11.0119 6.17367 12.6585 5.84666C14.3051 5.51965 16.0117 5.68831 17.5624 6.33131C19.1132 6.97431 20.4384 8.06277 21.3705 9.45901C22.3025 10.8552 22.7996 12.4965 22.7988 14.1753C22.7966 16.4252 21.9016 18.5822 20.3103 20.1727C18.719 21.7632 16.5616 22.6572 14.3117 22.6583ZM14.3117 6.16706C12.7278 6.16706 11.1795 6.63673 9.86254 7.51669C8.54559 8.39665 7.51915 9.64737 6.91302 11.1107C6.3069 12.574 6.14831 14.1842 6.45731 15.7376C6.76631 17.2911 7.52902 18.718 8.649 19.838C9.76897 20.958 11.1959 21.7207 12.7494 22.0297C14.3028 22.3387 15.913 22.1801 17.3763 21.574C18.8396 20.9679 20.0904 19.9414 20.9703 18.6245C21.8503 17.3075 22.3199 15.7592 22.3199 14.1753C22.3178 12.0521 21.4733 10.0164 19.972 8.51504C18.4706 7.01367 16.4349 6.16924 14.3117 6.16706Z" fill="#8E8E8E"/>
<path d="M8.61503 7.31448L9.34155 5.47754L10.0227 7.33925L11.2941 8.06577L9.9979 8.74689L9.27138 11.0792L8.59026 8.72212L7.31885 7.9956L8.61503 7.31448Z" fill="white"/>
</g>
<defs>
<clipPath id="clip0_6686_1154">
<rect width="28.6274" height="40" fill="white"/>
</clipPath>
</defs>
</svg>
