<svg width="28" height="40" viewBox="0 0 28 40" fill="none" xmlns="http://www.w3.org/2000/svg">
<g clip-path="url(#clip0_6840_167)">
<path d="M11.8702 25.2218L16.1298 39.8472L19.6303 34.712L25.412 36.8874L20.8496 22.7285L11.8702 25.2218Z" fill="#CD3414"/>
<g opacity="0.7">
<path d="M14.2679 29.2977L13.8199 29.4375L16.6682 38.9804L17.1162 38.8406L14.2679 29.2977Z" fill="#FFCE45"/>
</g>
<g opacity="0.7">
<path d="M20.7641 24.9894L20.3174 25.1333L23.8181 36.4919L24.2648 36.348L20.7641 24.9894Z" fill="#FFCE45"/>
</g>
<path d="M6.6942 23.6655L2.13184 37.2011L8.36976 35.0216L11.5634 39.9999L16.8929 25.5314L6.6942 23.6655Z" fill="#FE5629"/>
<g opacity="0.7">
<path d="M7.84149 23.1215L3.5791 36.502L4.02443 36.6502L8.28682 23.2698L7.84149 23.1215Z" fill="#FFCE45"/>
</g>
<g opacity="0.7">
<path d="M15.4544 24.6737L10.583 38.8325L11.0248 38.9914L15.8962 24.8326L15.4544 24.6737Z" fill="#FFCE45"/>
</g>
<path d="M0 14.1753C0 13.519 1.55847 12.9865 1.6473 12.3549C1.73612 11.7233 0.403749 10.7533 0.565249 10.1382C0.726748 9.52313 2.38616 9.45708 2.64456 8.87504C2.90296 8.293 1.88147 6.97205 2.24081 6.43541C2.60014 5.89878 4.1788 6.30332 4.59063 5.82034C5.00245 5.33737 4.37664 3.777 4.85306 3.34356C5.32949 2.91013 6.74261 3.75636 7.27556 3.42612C7.80851 3.09589 7.62682 1.40755 8.20418 1.13923C8.78154 0.870912 9.8757 2.11343 10.4975 1.92767C11.1193 1.74191 11.3777 0.0948544 12.0075 -8.88319e-05C12.6373 -0.0950321 13.3601 1.41168 13.998 1.41168C14.6359 1.41168 15.3748 -0.0867761 15.9925 -8.88319e-05C16.6102 0.0865985 16.9171 1.74604 17.5187 1.92354C18.1203 2.10105 19.2467 0.879168 19.816 1.14749C20.3853 1.4158 20.2198 3.08763 20.7446 3.43438C21.2695 3.78113 22.6947 2.93077 23.1671 3.35182C23.6395 3.77287 23.0177 5.32912 23.4296 5.8286C23.8414 6.32808 25.4483 5.89878 25.7794 6.44367C26.1105 6.98856 25.089 8.293 25.3554 8.8833C25.6219 9.4736 27.2571 9.52726 27.4348 10.1465C27.6124 10.7656 26.2639 11.7192 26.3527 12.3632C26.4415 13.0071 28 13.5273 28 14.1836C28 14.84 26.4415 15.3683 26.3527 15.9999C26.2639 16.6315 27.6124 17.6016 27.4348 18.2166C27.2571 18.8317 25.6138 18.9019 25.3554 19.4839C25.097 20.066 26.1185 21.3828 25.7794 21.9235C25.4402 22.4643 23.8414 22.0515 23.4296 22.5345C23.0177 23.0175 23.6435 24.5985 23.1671 25.0113C22.6907 25.4241 21.2776 24.5985 20.7446 24.9287C20.2117 25.2589 20.3934 26.9473 19.816 27.2156C19.2386 27.4839 18.1243 26.2373 17.5187 26.4189C16.913 26.6005 16.6224 28.2517 15.9925 28.3425C15.3627 28.4333 14.6399 26.9308 13.998 26.9308C13.356 26.9308 12.6252 28.4333 12.0075 28.3425C11.3898 28.2517 11.0829 26.5964 10.4975 26.4189C9.91204 26.2414 8.76943 27.4633 8.20014 27.195C7.63086 26.9266 7.7964 25.2548 7.27152 24.9081C6.74665 24.5613 5.32141 25.4117 4.84903 24.9906C4.37664 24.5696 4.99841 23.0133 4.58659 22.5138C4.17477 22.0144 2.56784 22.4437 2.23677 21.9029C1.9057 21.3621 2.92718 20.0494 2.64052 19.4633C2.35386 18.8771 0.742898 18.8317 0.565249 18.2084C0.387599 17.585 1.73612 16.6356 1.6473 15.9917C1.55847 15.3477 0 14.8276 0 14.1753Z" fill="#FCAB28"/>
<path d="M13.998 25.6884C20.217 25.6884 25.2586 20.5339 25.2586 14.1755C25.2586 7.8171 20.217 2.6626 13.998 2.6626C7.77895 2.6626 2.73743 7.8171 2.73743 14.1755C2.73743 20.5339 7.77895 25.6884 13.998 25.6884Z" fill="#FFCE45"/>
<path d="M13.998 25.9193C11.3418 25.9174 8.76833 24.9741 6.71607 23.25C4.66381 21.5258 3.25966 19.1276 2.74281 16.4638C2.22596 13.7999 2.62838 11.0353 3.88153 8.64075C5.13467 6.24624 7.16102 4.36997 9.6154 3.33156C12.0698 2.29315 14.8004 2.15684 17.342 2.94585C19.8837 3.73485 22.0791 5.40037 23.5545 7.65868C25.0298 9.917 25.6938 12.6284 25.4332 15.3311C25.1726 18.0337 24.0037 20.5604 22.1255 22.4807C21.0602 23.5746 19.7935 24.4418 18.3984 25.032C17.0034 25.6222 15.5077 25.9238 13.998 25.9193ZM13.998 2.8894C11.8157 2.8894 9.6825 3.55096 7.86798 4.79043C6.05346 6.0299 4.63914 7.79162 3.80385 9.85285C2.96856 11.9141 2.74981 14.1822 3.17525 16.3706C3.60069 18.5589 4.65122 20.5691 6.19401 22.1471C7.7368 23.725 9.70258 24.7998 11.8428 25.2356C13.983 25.6714 16.2015 25.4485 18.2179 24.5953C20.2342 23.742 21.9579 22.2967 23.1708 20.4419C24.3838 18.5872 25.0316 16.4064 25.0324 14.1753C25.0303 11.1835 23.8672 8.31474 21.7984 6.19883C19.7296 4.08291 16.9242 2.89268 13.998 2.8894Z" fill="#FCAB28"/>
<path d="M13.9979 22.4231C18.4532 22.4231 22.0648 18.7305 22.0648 14.1754C22.0648 9.62035 18.4532 5.92773 13.9979 5.92773C9.54271 5.92773 5.93103 9.62035 5.93103 14.1754C5.93103 18.7305 9.54271 22.4231 13.9979 22.4231Z" fill="#FFD733"/>
<path d="M20.6962 10.9062C20.6943 10.391 20.647 9.87704 20.5549 9.37055C19.4795 7.85473 17.9321 6.75769 16.1666 6.25948C14.4011 5.76128 12.5224 5.8915 10.8388 6.62879C9.15526 7.36608 7.76685 8.66663 6.90147 10.317C6.03609 11.9673 5.74516 13.8694 6.07643 15.7111C7.07478 17.1235 8.48465 18.1768 10.1042 18.72C11.7237 19.2632 13.4698 19.2685 15.0925 18.7352C16.7152 18.2019 18.1312 17.1573 19.1377 15.751C20.1443 14.3447 20.6898 12.6488 20.6962 10.9062Z" fill="#FFE266"/>
<path d="M13.998 22.6583C12.356 22.6583 10.7509 22.1604 9.38573 21.2277C8.02054 20.2949 6.95657 18.9692 6.3284 17.4181C5.70023 15.867 5.53608 14.1604 5.8567 12.5139C6.17733 10.8675 6.96833 9.35522 8.12966 8.16844C9.29099 6.98166 10.7705 6.17367 12.381 5.84666C13.9915 5.51965 15.6607 5.68831 17.1775 6.33131C18.6942 6.97431 19.9904 8.06277 20.902 9.45901C21.8137 10.8552 22.2999 12.4965 22.2991 14.1753C22.2969 16.4252 21.4215 18.5822 19.8651 20.1727C18.3087 21.7632 16.1985 22.6572 13.998 22.6583ZM13.998 6.16706C12.4488 6.16706 10.9344 6.63673 9.64635 7.51669C8.35826 8.39665 7.35432 9.64737 6.76148 11.1107C6.16864 12.574 6.01353 14.1842 6.31575 15.7376C6.61798 17.2911 7.36398 18.718 8.45941 19.838C9.55483 20.958 10.9505 21.7207 12.4699 22.0297C13.9893 22.3387 15.5642 22.1801 16.9954 21.574C18.4267 20.9679 19.65 19.9414 20.5107 18.6245C21.3713 17.3075 21.8307 15.7592 21.8307 14.1753C21.8286 12.0521 21.0027 10.0164 19.5342 8.51504C18.0657 7.01367 16.0747 6.16924 13.998 6.16706Z" fill="#FCAB28"/>
<path d="M8.42622 7.31448L9.13682 5.47754L9.803 7.33925L11.0466 8.06577L9.77878 8.74689L9.06818 11.0792L8.40199 8.72212L7.15845 7.9956L8.42622 7.31448Z" fill="white"/>
</g>
<defs>
<clipPath id="clip0_6840_167">
<rect width="28" height="40" fill="white"/>
</clipPath>
</defs>
</svg>
