<svg width="66" height="93" viewBox="0 0 66 93" fill="none" xmlns="http://www.w3.org/2000/svg">
<g clip-path="url(#clip0_6684_596)">
<path d="M27.9799 58.1485L38.0202 91.867L46.2714 80.028L59.8997 85.0434L49.1455 52.4003L27.9799 58.1485Z" fill="#CD3414"/>
<g opacity="0.7">
<path d="M33.6315 67.5457L32.5756 67.8679L39.2893 89.8688L40.3452 89.5466L33.6315 67.5457Z" fill="#FFCE45"/>
</g>
<g opacity="0.7">
<path d="M48.9439 57.6125L47.891 57.9443L56.1427 84.1313L57.1956 83.7996L48.9439 57.6125Z" fill="#FFCE45"/>
</g>
<path d="M15.779 54.5606L5.0249 85.7667L19.7286 80.7417L27.2565 92.2192L39.8188 58.8623L15.779 54.5606Z" fill="#FE5629"/>
<g opacity="0.7">
<path d="M18.4836 53.3064L8.43652 84.1548L9.48622 84.4967L19.5333 53.6483L18.4836 53.3064Z" fill="#FFCE45"/>
</g>
<g opacity="0.7">
<path d="M36.4281 56.8858L24.9456 89.5287L25.987 89.895L37.4696 57.2521L36.4281 56.8858Z" fill="#FFCE45"/>
</g>
<path d="M0 32.6812C0 31.168 3.67354 29.9403 3.88291 28.4842C4.09229 27.0281 0.951694 24.7916 1.33237 23.3736C1.71305 21.9556 5.62451 21.8033 6.2336 20.4614C6.84268 19.1195 4.4349 16.0741 5.2819 14.8369C6.12891 13.5997 9.85004 14.5324 10.8208 13.4189C11.7915 12.3054 10.3164 8.70798 11.4394 7.7087C12.5624 6.70942 15.8933 8.6604 17.1495 7.89904C18.4058 7.13769 17.9775 3.24526 19.3384 2.62665C20.6994 2.00805 23.2784 4.87265 24.7441 4.44439C26.2097 4.01613 26.8187 0.218868 28.3034 -2.20281e-05C29.788 -0.218912 31.4916 3.25477 32.9952 3.25477C34.4989 3.25477 36.2405 -0.199878 37.6966 -2.20281e-05C39.1527 0.199834 39.876 4.02564 41.294 4.43487C42.712 4.8441 45.3673 2.02709 46.7092 2.64569C48.051 3.26429 47.6609 7.11865 48.8981 7.91807C50.1353 8.7175 53.4947 6.75701 54.6082 7.72774C55.7217 8.69846 54.2561 12.2864 55.2268 13.4379C56.1975 14.5895 59.9853 13.5997 60.7657 14.8559C61.5461 16.1122 59.1383 19.1195 59.7664 20.4804C60.3945 21.8414 64.2489 21.9651 64.6676 23.3926C65.0864 24.8202 61.9077 27.0186 62.1171 28.5032C62.3265 29.9879 66 31.187 66 32.7002C66 34.2134 62.3265 35.4316 62.1171 36.8876C61.9077 38.3437 65.0864 40.5802 64.6676 41.9982C64.2489 43.4163 60.3755 43.5781 59.7664 44.9199C59.1573 46.2618 61.5651 49.2977 60.7657 50.5445C59.9663 51.7912 56.1975 50.8395 55.2268 51.953C54.2561 53.0665 55.7312 56.7114 54.6082 57.6631C53.4852 58.6148 50.1543 56.7114 48.8981 57.4728C47.6418 58.2342 48.0701 62.1266 46.7092 62.7452C45.3482 63.3638 42.7216 60.4897 41.294 60.9084C39.8665 61.3272 39.1813 65.1339 37.6966 65.3433C36.212 65.5527 34.5084 62.0885 32.9952 62.0885C31.482 62.0885 29.7595 65.5527 28.3034 65.3433C26.8473 65.1339 26.124 61.3176 24.7441 60.9084C23.3641 60.4992 20.6708 63.3162 19.3289 62.6976C17.987 62.079 18.3772 58.2246 17.14 57.4252C15.9028 56.6258 12.5433 58.5863 11.4298 57.6156C10.3164 56.6448 11.782 53.0569 10.8112 51.9054C9.84052 50.7538 6.05278 51.7436 5.27239 50.4969C4.492 49.2502 6.89978 46.2238 6.22408 44.8724C5.54838 43.521 1.75112 43.4163 1.33237 41.9792C0.913627 40.5422 4.09229 38.3533 3.88291 36.8686C3.67354 35.384 0 34.1848 0 32.6812Z" fill="#D37F05"/>
<path d="M32.9953 59.2239C47.6544 59.2239 59.538 47.3403 59.538 32.6812C59.538 18.022 47.6544 6.13843 32.9953 6.13843C18.3361 6.13843 6.45251 18.022 6.45251 32.6812C6.45251 47.3403 18.3361 59.2239 32.9953 59.2239Z" fill="#DD9F03"/>
<path d="M32.9952 51.696C43.4968 51.696 52.0101 43.1828 52.0101 32.6812C52.0101 22.1796 43.4968 13.6663 32.9952 13.6663C22.4936 13.6663 13.9803 22.1796 13.9803 32.6812C13.9803 43.1828 22.4936 51.696 32.9952 51.696Z" fill="#EDAB18"/>
<path d="M48.7838 25.1437C48.7795 23.956 48.668 22.7711 48.4507 21.6034C45.916 18.1087 42.2686 15.5795 38.107 14.4309C33.9455 13.2823 29.5171 13.5825 25.5487 15.2824C21.5802 16.9822 18.3076 19.9805 16.2677 23.7854C14.2279 27.5902 13.5421 31.9755 14.323 36.2214C16.6762 39.4778 19.9995 41.9059 23.817 43.1583C27.6344 44.4106 31.7503 44.4229 35.5751 43.1934C39.4 41.9639 42.7377 39.5556 45.1103 36.3134C47.483 33.0711 48.7689 29.1613 48.7838 25.1437Z" fill="#F4B72F"/>
<path d="M32.9952 52.2385C29.1248 52.2385 25.3414 51.0907 22.1234 48.9402C18.9055 46.7898 16.3976 43.7333 14.9169 40.1573C13.4362 36.5814 13.0493 32.6467 13.805 28.8508C14.5608 25.055 16.4253 21.5685 19.1627 18.8324C21.9001 16.0963 25.3875 14.2335 29.1837 13.4796C32.9799 12.7257 36.9145 13.1145 40.4897 14.597C44.0649 16.0794 47.1202 18.5888 49.269 21.8078C51.4179 25.0268 52.5639 28.8108 52.562 32.6812C52.557 37.8682 50.4936 42.8412 46.8249 46.5081C43.1562 50.175 38.1822 52.236 32.9952 52.2385ZM32.9952 14.2183C29.3436 14.2183 25.774 15.3011 22.7378 17.3298C19.7016 19.3586 17.3351 22.2421 15.9377 25.6157C14.5403 28.9894 14.1747 32.7016 14.8871 36.2831C15.5995 39.8645 17.3579 43.1543 19.94 45.7364C22.522 48.3185 25.8118 50.0769 29.3933 50.7893C32.9747 51.5017 36.687 51.136 40.0606 49.7386C43.4343 48.3412 46.3178 45.9748 48.3465 42.9386C50.3752 39.9024 51.4581 36.3328 51.4581 32.6812C51.453 27.786 49.5062 23.0929 46.0448 19.6315C42.5835 16.1701 37.8903 14.2233 32.9952 14.2183Z" fill="#FCAB28"/>
<path d="M19.8619 16.864L21.5368 12.629L23.1071 16.9211L26.0384 18.5961L23.05 20.1664L21.375 25.5435L19.8048 20.1093L16.8735 18.4343L19.8619 16.864Z" fill="white"/>
</g>
<defs>
<clipPath id="clip0_6684_596">
<rect width="66" height="92.2192" fill="white"/>
</clipPath>
</defs>
</svg>
